<mxfile host="app.diagrams.net" agent="Mozilla/5.0 (Windows NT 10.0; Win64; x64) AppleWebKit/537.36 (KHTML, like Gecko) Chrome/141.0.0.0 Safari/537.36" version="28.2.7">
  <diagram name="Página-1" id="OTSLkH3ikD4H9L2DBq_S">
    <mxGraphModel dx="1426" dy="749" grid="1" gridSize="10" guides="1" tooltips="1" connect="1" arrows="1" fold="1" page="1" pageScale="1" pageWidth="827" pageHeight="1169" math="0" shadow="0">
      <root>
        <mxCell id="0" />
        <mxCell id="1" parent="0" />
        <mxCell id="A4JZe-Qw8uUZFpEQrZ0X-4" style="edgeStyle=orthogonalEdgeStyle;rounded=0;orthogonalLoop=1;jettySize=auto;html=1;" edge="1" parent="1" source="A4JZe-Qw8uUZFpEQrZ0X-1" target="A4JZe-Qw8uUZFpEQrZ0X-5">
          <mxGeometry relative="1" as="geometry">
            <mxPoint x="340" y="330" as="targetPoint" />
          </mxGeometry>
        </mxCell>
        <mxCell id="A4JZe-Qw8uUZFpEQrZ0X-1" value="&lt;font style=&quot;font-size: 17px;&quot;&gt;Interface Web&lt;/font&gt;" style="verticalAlign=top;align=left;spacingTop=8;spacingLeft=2;spacingRight=12;shape=cube;size=10;direction=south;fontStyle=4;html=1;whiteSpace=wrap;" vertex="1" parent="1">
          <mxGeometry x="80" y="90" width="220" height="150" as="geometry" />
        </mxCell>
        <mxCell id="A4JZe-Qw8uUZFpEQrZ0X-2" value="Web Browser" style="html=1;dropTarget=0;whiteSpace=wrap;" vertex="1" parent="1">
          <mxGeometry x="110" y="140" width="150" height="80" as="geometry" />
        </mxCell>
        <mxCell id="A4JZe-Qw8uUZFpEQrZ0X-3" value="" style="shape=module;jettyWidth=8;jettyHeight=4;" vertex="1" parent="A4JZe-Qw8uUZFpEQrZ0X-2">
          <mxGeometry x="1" width="20" height="20" relative="1" as="geometry">
            <mxPoint x="-27" y="7" as="offset" />
          </mxGeometry>
        </mxCell>
        <mxCell id="A4JZe-Qw8uUZFpEQrZ0X-13" style="edgeStyle=orthogonalEdgeStyle;rounded=0;orthogonalLoop=1;jettySize=auto;html=1;" edge="1" parent="1" source="A4JZe-Qw8uUZFpEQrZ0X-5" target="A4JZe-Qw8uUZFpEQrZ0X-12">
          <mxGeometry relative="1" as="geometry" />
        </mxCell>
        <mxCell id="A4JZe-Qw8uUZFpEQrZ0X-5" value="APIRest/BackEnd" style="verticalAlign=top;align=left;spacingTop=8;spacingLeft=2;spacingRight=12;shape=cube;size=10;direction=south;fontStyle=4;html=1;whiteSpace=wrap;" vertex="1" parent="1">
          <mxGeometry x="100" y="350" width="350" height="220" as="geometry" />
        </mxCell>
        <mxCell id="A4JZe-Qw8uUZFpEQrZ0X-6" value="&lt;font style=&quot;font-size: 17px;&quot;&gt;Atletas&lt;/font&gt;" style="html=1;dropTarget=0;whiteSpace=wrap;" vertex="1" parent="1">
          <mxGeometry x="120" y="390" width="100" height="70" as="geometry" />
        </mxCell>
        <mxCell id="A4JZe-Qw8uUZFpEQrZ0X-7" value="" style="shape=module;jettyWidth=8;jettyHeight=4;" vertex="1" parent="A4JZe-Qw8uUZFpEQrZ0X-6">
          <mxGeometry x="1" width="20" height="20" relative="1" as="geometry">
            <mxPoint x="-27" y="7" as="offset" />
          </mxGeometry>
        </mxCell>
        <mxCell id="A4JZe-Qw8uUZFpEQrZ0X-8" value="&lt;font style=&quot;font-size: 17px;&quot;&gt;Federação&lt;/font&gt;" style="html=1;dropTarget=0;whiteSpace=wrap;" vertex="1" parent="1">
          <mxGeometry x="250" y="390" width="150" height="70" as="geometry" />
        </mxCell>
        <mxCell id="A4JZe-Qw8uUZFpEQrZ0X-9" value="" style="shape=module;jettyWidth=8;jettyHeight=4;" vertex="1" parent="A4JZe-Qw8uUZFpEQrZ0X-8">
          <mxGeometry x="1" width="20" height="20" relative="1" as="geometry">
            <mxPoint x="-27" y="7" as="offset" />
          </mxGeometry>
        </mxCell>
        <mxCell id="A4JZe-Qw8uUZFpEQrZ0X-10" value="&lt;font style=&quot;font-size: 17px;&quot;&gt;COI&lt;/font&gt;" style="html=1;dropTarget=0;whiteSpace=wrap;" vertex="1" parent="1">
          <mxGeometry x="170" y="480" width="150" height="70" as="geometry" />
        </mxCell>
        <mxCell id="A4JZe-Qw8uUZFpEQrZ0X-11" value="" style="shape=module;jettyWidth=8;jettyHeight=4;" vertex="1" parent="A4JZe-Qw8uUZFpEQrZ0X-10">
          <mxGeometry x="1" width="20" height="20" relative="1" as="geometry">
            <mxPoint x="-27" y="7" as="offset" />
          </mxGeometry>
        </mxCell>
        <mxCell id="A4JZe-Qw8uUZFpEQrZ0X-12" value="" style="shape=cylinder3;whiteSpace=wrap;html=1;boundedLbl=1;backgroundOutline=1;size=15;" vertex="1" parent="1">
          <mxGeometry x="210" y="650" width="60" height="80" as="geometry" />
        </mxCell>
        <mxCell id="A4JZe-Qw8uUZFpEQrZ0X-15" value="Postgresql" style="text;html=1;whiteSpace=wrap;strokeColor=none;fillColor=none;align=center;verticalAlign=middle;rounded=0;fontSize=19;" vertex="1" parent="1">
          <mxGeometry x="210" y="730" width="60" height="30" as="geometry" />
        </mxCell>
      </root>
    </mxGraphModel>
  </diagram>
</mxfile>
